# xmcd CD database file
#
# Track frame offsets:
#	150
#	27997
#	53555
#	67465
#	97192
#	114610
#	130952
#	158462
#	179287
#	204945
#	225532
#	241730
#	265987
#
# Disc length: 3861 seconds
#
# Revision: 2
# Processed by: cddbd v1.5.1PL0 Copyright (c) Steve Scherf et al.
# Submitted via: CDex 1.51
#
DISCID=b00f130d
DTITLE=Keiko Lee - New York State of Mind
DYEAR=2000
DGENRE=Jazz
TTITLE0=New York State Of Mind
TTITLE1=What A Difference A Day Made
TTITLE2=Exactly Like You
TTITLE3=Superstar
TTITLE4=Tennessee Waltz
TTITLE5=Do You Know What It Means To Miss New Orleans
TTITLE6=Saving All My Love For You
TTITLE7=Tears In Heaven
TTITLE8=I Left My Heart In San Francisco
TTITLE9=On The Street Where You Live
TTITLE10=Fly Me To The Moon
TTITLE11=What's New
TTITLE12=All In Love Is Fair
EXTD=YEAR: 2000
EXTT0=
EXTT1=
EXTT2=
EXTT3=
EXTT4=
EXTT5=
EXTT6=
EXTT7=
EXTT8=
EXTT9=
EXTT10=
EXTT11=
EXTT12=
PLAYORDER=
